<?xml version="1.0" encoding="UTF-8"?>
<svg version="1.1" xmlns="http://www.w3.org/2000/svg" width="542" height="520">
<path d="M0 0 C178.86 0 357.72 0 542 0 C542 171.6 542 343.2 542 520 C363.14 520 184.28 520 0 520 C0 348.4 0 176.8 0 0 Z " fill="#FCFCFC" transform="translate(0,0)"/>
<path d="M0 0 C1.38458958 0.58060697 2.76986751 1.15957462 4.15576172 1.73706055 C7.208708 3.01137991 10.25791181 4.29418601 13.30517578 5.58203125 C18.6266459 7.82603898 23.96632968 10.02479492 29.30859375 12.21875 C47.86184754 19.84236408 66.38871982 27.52781544 84.875 35.3125 C85.98587982 35.78014267 85.98587982 35.78014267 87.11920166 36.25723267 C95.87909657 39.94716903 104.62341951 43.67260932 113.35913086 47.41943359 C114.80234333 48.03820625 114.80234333 48.03820625 116.27471161 48.66947937 C118.62070367 49.67534037 120.9666319 50.68134993 123.3125 51.6875 C123.42969777 70.70790117 123.51766564 89.7282283 123.57156086 108.74891663 C123.59725902 117.5820834 123.63224745 126.41502482 123.68969727 135.24804688 C123.73979092 142.95376849 123.77185185 150.65932678 123.78294247 158.36520672 C123.7894177 162.43928456 123.80445716 166.51289547 123.84115028 170.58682251 C123.87552225 174.43484037 123.88547175 178.28220665 123.87803841 182.13036346 C123.87939485 183.52982903 123.88907952 184.92932034 123.90852737 186.32865143 C124.30735515 216.55191928 104.89504766 241.48707782 84.8828125 262.33984375 C76.36778086 271.07502474 67.73673299 279.27151615 57.90380859 286.49755859 C56.34125734 287.66599597 54.82029245 288.8893948 53.30078125 290.11328125 C35.06169922 304.75592457 2.81819554 329.35669348 -21.6875 327.6875 C-31.83296819 324.99584517 -41.43337679 319.56879576 -50.6875 314.6875 C-51.6760498 314.16929687 -51.6760498 314.16929687 -52.68457031 313.640625 C-85.11677685 296.48851577 -117.19611587 270.53207704 -138.6875 240.6875 C-139.33477051 239.7907959 -139.33477051 239.7907959 -139.99511719 238.87597656 C-144.90546068 231.98831354 -149.29212707 224.9188112 -153.125 217.375 C-153.44299561 216.75383301 -153.76099121 216.13266602 -154.08862305 215.49267578 C-159.00185446 205.444146 -160.13440449 196.23211809 -160.10742188 185.10571289 C-160.11477544 183.66084137 -160.12336538 182.21597569 -160.13308716 180.77111816 C-160.15515791 176.8769522 -160.15824178 172.98299865 -160.15633965 169.08877873 C-160.15621946 165.83276082 -160.16480166 162.57678716 -160.17311716 159.32078165 C-160.19229287 151.64473217 -160.19525376 143.96879146 -160.18847656 136.29272461 C-160.18181444 128.37395087 -160.20480008 120.4556404 -160.24179029 112.53696066 C-160.27244111 105.72824865 -160.28385314 98.9196862 -160.27995348 92.11090654 C-160.27788405 88.0480746 -160.28339728 83.98560472 -160.30784607 79.92283821 C-160.33003947 76.10994033 -160.32829856 72.29780218 -160.30791855 68.48490143 C-160.3044971 67.08483482 -160.30964644 65.68471768 -160.32390213 64.28471947 C-160.34199083 62.37711249 -160.3263926 60.46927385 -160.30895996 58.56166077 C-160.30967247 57.49338578 -160.31038498 56.4251108 -160.31111908 55.32446384 C-159.6875 52.6875 -159.6875 52.6875 -157.27996063 50.88492489 C-156.42444862 50.48977468 -155.56893661 50.09462446 -154.6875 49.6875 C-153.99422607 49.34662354 -153.30095215 49.00574707 -152.58666992 48.65454102 C-150.01850531 47.51400185 -147.44949677 46.37620814 -144.875 45.25 C-143.81877441 44.78682373 -142.76254883 44.32364746 -141.67431641 43.84643555 C-110.92299502 30.46520445 -79.83092014 17.82892113 -48.77233887 5.1804657 C-44.55090446 3.45840034 -40.34475908 1.70454786 -36.1484375 -0.078125 C-35.22063477 -0.46645508 -34.29283203 -0.85478516 -33.33691406 -1.25488281 C-31.75274233 -1.91858029 -30.17312551 -2.59337312 -28.60058594 -3.28417969 C-18.01259243 -7.66910629 -10.12158351 -4.34758379 0 0 Z " fill="#FCFBFC" transform="translate(291.6875,100.3125)"/>
<path d="M0 0 C1.38458958 0.58060697 2.76986751 1.15957462 4.15576172 1.73706055 C7.208708 3.01137991 10.25791181 4.29418601 13.30517578 5.58203125 C18.6266459 7.82603898 23.96632968 10.02479492 29.30859375 12.21875 C47.86184754 19.84236408 66.38871982 27.52781544 84.875 35.3125 C85.98587982 35.78014267 85.98587982 35.78014267 87.11920166 36.25723267 C95.87909657 39.94716903 104.62341951 43.67260932 113.35913086 47.41943359 C114.80234333 48.03820625 114.80234333 48.03820625 116.27471161 48.66947937 C118.62070367 49.67534037 120.9666319 50.68134993 123.3125 51.6875 C123.42969777 70.70790117 123.51766564 89.7282283 123.57156086 108.74891663 C123.59725902 117.5820834 123.63224745 126.41502482 123.68969727 135.24804688 C123.73979092 142.95376849 123.77185185 150.65932678 123.78294247 158.36520672 C123.7894177 162.43928456 123.80445716 166.51289547 123.84115028 170.58682251 C123.87552225 174.43484037 123.88547175 178.28220665 123.87803841 182.13036346 C123.87939485 183.52982903 123.88907952 184.92932034 123.90852737 186.32865143 C124.30735515 216.55191928 104.89504766 241.48707782 84.8828125 262.33984375 C76.36778086 271.07502474 67.73673299 279.27151615 57.90380859 286.49755859 C56.34125734 287.66599597 54.82029245 288.8893948 53.30078125 290.11328125 C35.06169922 304.75592457 2.81819554 329.35669348 -21.6875 327.6875 C-31.83296819 324.99584517 -41.43337679 319.56879576 -50.6875 314.6875 C-51.6760498 314.16929687 -51.6760498 314.16929687 -52.68457031 313.640625 C-85.11677685 296.48851577 -117.19611587 270.53207704 -138.6875 240.6875 C-139.33477051 239.7907959 -139.33477051 239.7907959 -139.99511719 238.87597656 C-144.90546068 231.98831354 -149.29212707 224.9188112 -153.125 217.375 C-153.44299561 216.75383301 -153.76099121 216.13266602 -154.08862305 215.49267578 C-159.00185446 205.444146 -160.13440449 196.23211809 -160.10742188 185.10571289 C-160.11477544 183.66084137 -160.12336538 182.21597569 -160.13308716 180.77111816 C-160.15515791 176.8769522 -160.15824178 172.98299865 -160.15633965 169.08877873 C-160.15621946 165.83276082 -160.16480166 162.57678716 -160.17311716 159.32078165 C-160.19229287 151.64473217 -160.19525376 143.96879146 -160.18847656 136.29272461 C-160.18181444 128.37395087 -160.20480008 120.4556404 -160.24179029 112.53696066 C-160.27244111 105.72824865 -160.28385314 98.9196862 -160.27995348 92.11090654 C-160.27788405 88.0480746 -160.28339728 83.98560472 -160.30784607 79.92283821 C-160.33003947 76.10994033 -160.32829856 72.29780218 -160.30791855 68.48490143 C-160.3044971 67.08483482 -160.30964644 65.68471768 -160.32390213 64.28471947 C-160.34199083 62.37711249 -160.3263926 60.46927385 -160.30895996 58.56166077 C-160.30967247 57.49338578 -160.31038498 56.4251108 -160.31111908 55.32446384 C-159.6875 52.6875 -159.6875 52.6875 -157.27996063 50.88492489 C-156.42444862 50.48977468 -155.56893661 50.09462446 -154.6875 49.6875 C-153.99422607 49.34662354 -153.30095215 49.00574707 -152.58666992 48.65454102 C-150.01850531 47.51400185 -147.44949677 46.37620814 -144.875 45.25 C-143.81877441 44.78682373 -142.76254883 44.32364746 -141.67431641 43.84643555 C-110.92299502 30.46520445 -79.83092014 17.82892113 -48.77233887 5.1804657 C-44.55090446 3.45840034 -40.34475908 1.70454786 -36.1484375 -0.078125 C-35.22063477 -0.46645508 -34.29283203 -0.85478516 -33.33691406 -1.25488281 C-31.75274233 -1.91858029 -30.17312551 -2.59337312 -28.60058594 -3.28417969 C-18.01259243 -7.66910629 -10.12158351 -4.34758379 0 0 Z M-29.36328125 20.58984375 C-30.10874207 20.89863464 -30.85420288 21.20742554 -31.62225342 21.52557373 C-34.08577374 22.54878676 -36.54276117 23.58680292 -39 24.625 C-40.73778787 25.35035308 -42.47599579 26.07470056 -44.21459961 26.7980957 C-47.86070827 28.31669981 -51.50437792 29.84096406 -55.14648438 31.36914062 C-60.53186438 33.62624494 -65.92835288 35.85571145 -71.328125 38.078125 C-87.22589679 44.62633755 -103.09810679 51.22738844 -118.875 58.0625 C-119.49778839 58.33194427 -120.12057678 58.60138855 -120.76223755 58.8789978 C-126.47829088 61.3556824 -132.12124482 63.88860862 -137.6875 66.6875 C-137.8047049 83.13477727 -137.89266885 99.58191747 -137.94656086 116.02951241 C-137.97225765 123.66776683 -138.00724308 131.30576062 -138.06469727 138.94384766 C-138.11479556 145.60724797 -138.14685285 152.27045937 -138.15794247 158.93404281 C-138.16441704 162.45700041 -138.17945115 165.97941794 -138.21615028 169.50220108 C-138.75961438 189.72795505 -138.75961438 189.72795505 -132.6875 208.6875 C-132.36524948 209.38561798 -132.04299896 210.08373596 -131.71098328 210.80300903 C-120.06379738 235.05438887 -96.83068323 257.6756357 -75.6875 273.6875 C-74.69290771 274.45610352 -74.69290771 274.45610352 -73.67822266 275.24023438 C-62.2165699 284.07898528 -50.47225915 291.89434007 -37.6875 298.6875 C-36.91003418 299.10354492 -36.13256836 299.51958984 -35.33154297 299.94824219 C-33.06831428 301.14160676 -30.79033544 302.2971535 -28.5 303.4375 C-27.82952637 303.78538574 -27.15905273 304.13327148 -26.46826172 304.49169922 C-21.00259274 307.10059409 -16.44447238 306.98552708 -10.75415039 305.01953125 C-8.73081359 304.18986354 -6.77553859 303.27606682 -4.8125 302.3125 C-4.08635498 301.9623584 -3.36020996 301.6122168 -2.61206055 301.25146484 C18.08717045 291.02486116 37.28092319 277.28896129 54.11572266 261.54321289 C56.34196616 259.46429989 58.58074124 257.47487937 60.96875 255.58203125 C63.08417275 253.87206452 64.75653974 252.20012109 66.5 250.125 C68.48497208 247.78847779 70.48406334 245.50713854 72.59765625 243.28515625 C88.490943 226.53549589 101.68314505 206.6369875 101.53955078 183.05102539 C101.53984283 181.7917926 101.54013489 180.53255981 101.54043579 179.23516846 C101.54100724 175.79968427 101.52928688 172.36434107 101.51528788 168.92888951 C101.50274561 165.33211189 101.50160727 161.73533067 101.49923706 158.13853455 C101.49303253 151.33532934 101.47663569 144.53218876 101.45653808 137.72901195 C101.43414703 129.98051765 101.4231776 122.23202018 101.41314721 114.48350155 C101.3922685 98.55146366 101.3571126 82.61949018 101.3125 66.6875 C97.67889285 65.06795172 94.04479694 63.44950536 90.41028595 61.83198643 C88.58115915 61.01768718 86.75239711 60.20256873 84.92364502 59.38742828 C73.94144859 54.50095023 62.89407158 49.78078011 51.8125 45.125 C49.8576618 44.30176783 47.90282787 43.4785255 45.94799805 42.65527344 C32.35856489 36.93873534 18.75069214 31.27158681 5.06347656 25.79248047 C2.33699388 24.69733842 -0.38244189 23.58593024 -3.1015625 22.47265625 C-4.73405296 21.81430506 -6.36684364 21.15669758 -8 20.5 C-8.70600342 20.20770508 -9.41200684 19.91541016 -10.1394043 19.61425781 C-17.42545783 16.72687185 -22.31467355 17.57452279 -29.36328125 20.58984375 Z " fill="#673AE4" transform="translate(291.6875,100.3125)"/>
<path d="M0 0 C0.66 0.33 1.32 0.66 2 1 C2.60319376 3.34241837 3.075027 5.60582517 3.48046875 7.984375 C3.60834274 8.70268494 3.73621674 9.42099487 3.8679657 10.16107178 C5.25827978 18.1589152 6.30939392 26.1960743 7.3125 34.25 C7.52106347 35.89495025 7.72972539 37.53988802 7.93847656 39.18481445 C10.11704881 56.48407217 12.083261 73.80936535 14.0324707 91.13574219 C14.15618546 92.22722061 14.27990021 93.31869904 14.40736389 94.44325256 C14.64039908 96.50015363 14.8712599 98.55730261 15.09959412 100.61473083 C15.20369095 101.53101761 15.30778778 102.44730438 15.41503906 103.39135742 C15.54897064 104.58724739 15.54897064 104.58724739 15.68560791 105.80729675 C15.96179357 108.00037677 15.96179357 108.00037677 16.52748108 110.1081543 C17.77798635 115.11485967 17.18492166 120.68419042 17.1875 125.8125 C17.19974609 127.05193359 17.21199219 128.29136719 17.22460938 129.56835938 C17.23655656 137.24243625 16.63243497 144.58572308 15.51928711 152.17456055 C14.98641361 156.10008706 14.61906131 160.02000687 14.32421875 163.96875 C14.2729332 164.65046265 14.22164764 165.33217529 14.16880798 166.0345459 C14.06296702 167.45305127 13.9577189 168.87160098 13.85302734 170.29019165 C12.78749228 184.51520268 11.31289718 198.66379294 9.5 212.8125 C9.39835541 213.61880859 9.29671082 214.42511719 9.19198608 215.25585938 C7.87810438 225.61107591 6.16731528 235.78850475 4 246 C3.81493896 246.95028076 3.62987793 247.90056152 3.43920898 248.87963867 C3.02610798 250.9342885 2.524744 252.97098987 2 255 C1.34 255.33 0.68 255.66 0 256 C-7.59360831 230.20718517 -9.7972735 202.81307759 -12.31713867 176.14710999 C-12.81924545 170.83422945 -13.35631453 165.52605032 -13.9140625 160.21875 C-16.70963653 133.37093302 -15.67652925 108.73805781 -12.07023621 82.06829834 C-11.22221999 75.76788729 -10.43930033 69.46193957 -9.6953125 63.1484375 C-9.59055603 62.26060577 -9.48579956 61.37277405 -9.37786865 60.45803833 C-9.273797 59.57582611 -9.16972534 58.69361389 -9.0625 57.78466797 C-6.77435594 38.39032677 -4.36103492 19.05791471 0 0 Z " fill="#673BE4" transform="translate(273,142)"/>
<path d="M0 0 C0.66 0.33 1.32 0.66 2 1 C2.65087891 2.98901367 2.65087891 2.98901367 3.2265625 5.66796875 C3.44989258 6.68842285 3.67322266 7.70887695 3.90332031 8.76025391 C4.14147461 9.89124512 4.37962891 11.02223633 4.625 12.1875 C5.00543457 13.94586182 5.00543457 13.94586182 5.39355469 15.73974609 C6.27320002 19.82426414 7.1377672 23.91178126 8 28 C8.34267477 29.61964978 8.68545161 31.23927798 9.02832031 32.85888672 C10.45284607 39.59239725 11.87470564 46.32645092 13.28369141 53.06323242 C13.44813751 53.8488707 13.61258362 54.63450897 13.78201294 55.44395447 C14.100287 56.96674735 14.41759437 58.48974265 14.7338562 60.01295471 C15.50880757 63.73066677 16.33601532 67.42760854 17.234375 71.1171875 C19.147108 80.81747628 16.97975039 86.54664846 13 95.4375 C12.46239353 96.66168276 11.92521339 97.88605281 11.38842773 99.1105957 C-14.70382307 158.18167764 -14.70382307 158.18167764 -32 184 C-32.33 184 -32.66 184 -33 184 C-32.46084331 178.1077531 -31.55660998 172.465733 -30.14453125 166.72265625 C-29.96245117 165.96248703 -29.78037109 165.20231781 -29.59277344 164.41911316 C-29.00416996 161.96572016 -28.4082728 159.51416076 -27.8125 157.0625 C-27.19380533 154.48921654 -26.57708725 151.91546402 -25.96037292 149.34170532 C-25.55005398 147.63010542 -25.13909644 145.91865848 -24.72749329 144.20736694 C-22.803228 136.20454815 -20.94392567 128.18748537 -19.10546875 120.16455078 C-17.8874909 114.8495064 -16.65836474 109.53759035 -15.40625 104.23046875 C-11.60177893 88.06406935 -8.24966461 72.29384917 -6.91137695 55.73120117 C-6.05472852 45.63787207 -4.74045882 35.60588116 -3.4375 25.5625 C-3.32545227 24.69703552 -3.21340454 23.83157104 -3.09796143 22.93988037 C-2.10524632 15.28731571 -1.10466507 7.63730675 0 0 Z " fill="#683CE4" transform="translate(339,201)"/>
<path d="M0 0 C0.33 0 0.66 0 1 0 C1.76352669 5.33149009 2.51096741 10.66507145 3.25 16 C3.36426331 16.82121338 3.47852661 17.64242676 3.59625244 18.48852539 C4.92350423 28.09145975 6.12440454 37.68607499 6.9765625 47.34375 C7.05104111 48.18603149 7.12551971 49.02831299 7.20225525 49.89611816 C7.27626053 50.7354187 7.35026581 51.57471924 7.42651367 52.43945312 C8.95439662 69.76562481 11.62247738 85.89305162 16.15380859 102.71875 C17.54320959 108.10638687 18.64923466 113.5473122 19.75 119 C20.15083161 120.9622825 20.55186202 122.92452441 20.953125 124.88671875 C21.13423828 125.77536621 21.31535156 126.66401367 21.50195312 127.57958984 C23.0320769 135.01569135 24.81974182 142.36529358 26.78662109 149.69604492 C28.81459274 157.26404563 30.71728047 164.84140926 32.375 172.5 C32.55474365 173.30711426 32.7344873 174.11422852 32.91967773 174.94580078 C34.11942897 180.64171308 34.11942897 180.64171308 33 184 C21.93468027 166.15824416 12.05786437 147.68639995 3.19140625 128.66015625 C1.40468298 124.82795348 -0.48947641 121.06578422 -2.4375 117.3125 C-5.85652325 110.50732873 -8.9128072 103.55074947 -11.9375 96.5625 C-12.43499756 95.43561768 -12.93249512 94.30873535 -13.44506836 93.14770508 C-17.99620323 82.48165489 -16.87019543 75.40089761 -14.375 64.3125 C-13.82276825 61.79820968 -13.27068931 59.28388579 -12.71875 56.76953125 C-12.43386719 55.48385254 -12.14898437 54.19817383 -11.85546875 52.87353516 C-10.50403737 46.75429708 -9.18845451 40.62748287 -7.875 34.5 C-7.62645264 33.34564453 -7.37790527 32.19128906 -7.12182617 31.00195312 C-5.39349848 22.94292926 -3.7446201 14.87066435 -2.20458984 6.7734375 C-1.10627423 1.10627423 -1.10627423 1.10627423 0 0 Z " fill="#683CE4" transform="translate(207,200)"/>
<path d="M0 0 C0.33 0.66 0.66 1.32 1 2 C2.32 1.67 3.64 1.34 5 1 C3.02 4.63 1.04 8.26 -1 12 C-1.33 12 -1.66 12 -2 12 C-1.85831863 10.56208484 -1.71148957 9.1246763 -1.5625 7.6875 C-1.48128906 6.88699219 -1.40007812 6.08648437 -1.31640625 5.26171875 C-1 3 -1 3 0 0 Z " fill="#7D57E2" transform="translate(308,373)"/>
<path d="M0 0 C0.33 0 0.66 0 1 0 C1.05389087 1.95803507 1.09274217 3.91648909 1.125 5.875 C1.14820313 6.96554688 1.17140625 8.05609375 1.1953125 9.1796875 C1 12 1 12 -1 14 C-1.93402724 8.58264203 -2.20808081 5.19548425 0 0 Z " fill="#784FE4" transform="translate(207,200)"/>
<path d="M0 0 C0.66 0.33 1.32 0.66 2 1 C2.4140625 3.06640625 2.4140625 3.06640625 2.625 5.5625 C2.69976562 6.38878906 2.77453125 7.21507812 2.8515625 8.06640625 C2.92503906 9.02353516 2.92503906 9.02353516 3 10 C1.68 10.33 0.36 10.66 -1 11 C-0.67 7.37 -0.34 3.74 0 0 Z " fill="#7148E1" transform="translate(339,201)"/>
<path d="M0 0 C0.66 0.33 1.32 0.66 2 1 C2.4140625 3.06640625 2.4140625 3.06640625 2.625 5.5625 C2.69976562 6.38878906 2.77453125 7.21507812 2.8515625 8.06640625 C2.92503906 9.02353516 2.92503906 9.02353516 3 10 C1.68 9.34 0.36 8.68 -1 8 C-0.67 5.36 -0.34 2.72 0 0 Z " fill="#835DE1" transform="translate(273,142)"/>
</svg>
