<?xml version="1.0" encoding="UTF-8"?>
<svg version="1.1" xmlns="http://www.w3.org/2000/svg" width="506" height="513">
<path d="M0 0 C166.98 0 333.96 0 506 0 C506 169.29 506 338.58 506 513 C339.02 513 172.04 513 0 513 C0 343.71 0 174.42 0 0 Z " fill="#0A0C25" transform="translate(0,0)"/>
<path d="M0 0 C1.11334717 0.44802979 2.22669434 0.89605957 3.3737793 1.35766602 C4.58461182 1.86096436 5.79544434 2.3642627 7.04296875 2.8828125 C8.35629252 3.41976258 9.66985826 3.95612112 10.98364258 4.49194336 C15.40970977 6.30577671 19.82151187 8.15283155 24.23046875 10.0078125 C25.4123175 10.50495758 25.4123175 10.50495758 26.61804199 11.012146 C49.30824399 20.57128059 71.8636343 30.43730481 94.36767578 40.42578125 C104.90435701 45.1024576 115.45008665 49.75177188 126.06713867 54.24414062 C126.87513916 54.59025391 127.68313965 54.93636719 128.515625 55.29296875 C129.1950415 55.58051025 129.87445801 55.86805176 130.57446289 56.16430664 C132.23046875 57.0078125 132.23046875 57.0078125 134.23046875 59.0078125 C134.48494434 61.58699131 134.48494434 61.58699131 134.49116516 64.92030334 C134.49824997 66.1805835 134.50533478 67.44086365 134.51263428 68.73933411 C134.51034016 70.14401281 134.50783042 71.54869117 134.50512695 72.95336914 C134.50947237 74.42672993 134.51465495 75.90008846 134.52061462 77.3734436 C134.53404149 81.38415746 134.53457869 85.39477727 134.53205132 89.40550923 C134.53098304 92.75499146 134.53586187 96.10445456 134.54065675 99.4539327 C134.55176694 107.36212521 134.55218236 115.27027025 134.54614258 123.1784668 C134.54011502 131.32632309 134.55237923 139.47400617 134.57371265 147.62183291 C134.59136146 154.62069327 134.59732442 161.6194987 134.5940749 168.61838049 C134.59226544 172.7965642 134.5948635 176.97462465 134.60878944 181.15278816 C134.6214148 185.08855346 134.61937947 189.02405073 134.60637856 192.95981216 C134.60402256 194.39927322 134.60671221 195.8387534 134.61500168 197.27819252 C134.65676568 205.09875317 134.34129937 211.77950382 131.23046875 219.0078125 C130.87726563 219.99007812 130.5240625 220.97234375 130.16015625 221.984375 C122.45510548 241.33261361 109.53627967 257.15649878 95.23046875 272.0078125 C94.72725098 272.53294434 94.2240332 273.05807617 93.70556641 273.59912109 C86.94210659 280.62363436 79.8937089 286.96001164 72.23046875 293.0078125 C71.0634515 293.96282777 69.89817872 294.91997751 68.734375 295.87890625 C48.09384817 312.80691244 19.10408633 334.79405629 -8.01953125 338.4453125 C-19.48884129 337.10722633 -29.71629338 331.34362192 -39.76953125 326.0078125 C-40.50010742 325.62318848 -41.23068359 325.23856445 -41.98339844 324.84228516 C-84.58248325 302.2838389 -134.05331736 263.66311722 -150.89488983 216.88187695 C-153.58434344 208.09558715 -154.34330057 200.12909614 -154.28710938 190.97192383 C-154.29254649 189.5264618 -154.29967796 188.08100533 -154.30834961 186.63555908 C-154.32637952 182.75806935 -154.31960591 178.88101148 -154.30683327 175.00351548 C-154.29662029 170.93036733 -154.30611976 166.85725318 -154.31237793 162.78410339 C-154.31962131 155.95976181 -154.31014465 149.13559437 -154.29101562 142.3112793 C-154.26915692 134.42200522 -154.27637626 126.53314323 -154.29832125 118.64387876 C-154.31645564 111.85206249 -154.31904612 105.06037034 -154.30856657 98.2685377 C-154.30233311 94.2192528 -154.30149379 90.17016207 -154.31471252 86.12088966 C-154.32624534 82.32440891 -154.31829339 78.5284632 -154.2951355 74.73204041 C-154.28983865 73.33843564 -154.29137891 71.94478596 -154.30018616 70.55119896 C-154.31108234 68.65250105 -154.29500833 66.75370489 -154.27746582 64.85505676 C-154.27595772 63.79197705 -154.27444962 62.72889734 -154.27289581 61.6336031 C-153.76953125 59.0078125 -153.76953125 59.0078125 -151.91837311 57.22887707 C-149.16355507 55.66347071 -146.36509261 54.40586551 -143.4453125 53.171875 C-142.80822357 52.90064316 -142.17113464 52.62941132 -141.51473999 52.34996033 C-139.37259461 51.43922872 -137.22730344 50.53615138 -135.08203125 49.6328125 C-133.53921409 48.97838476 -131.99665949 48.32333778 -130.4543457 47.66772461 C-127.95265101 46.6044725 -125.45074009 45.54175166 -122.94798279 44.48100281 C-116.25275708 41.64289842 -109.56786396 38.78123582 -102.88671875 35.91015625 C-83.49471926 27.57795506 -64.09441597 19.2666501 -44.64453125 11.0703125 C-43.88337006 10.74910431 -43.12220886 10.42789612 -42.33798218 10.09695435 C-38.15244719 8.3316481 -33.96180407 6.57950087 -29.76501465 4.84112549 C-27.71704272 3.98589331 -25.67743988 3.11244267 -23.63769531 2.23779297 C-22.30946882 1.68013019 -20.98102704 1.1229798 -19.65234375 0.56640625 C-18.4936377 0.07325928 -17.33493164 -0.4198877 -16.14111328 -0.92797852 C-10.23960778 -2.79073467 -5.66448852 -2.30755946 0 0 Z " fill="#0A0B25" transform="translate(254.76953125,79.9921875)"/>
<path d="M0 0 C1.11334717 0.44802979 2.22669434 0.89605957 3.3737793 1.35766602 C4.58461182 1.86096436 5.79544434 2.3642627 7.04296875 2.8828125 C8.35629252 3.41976258 9.66985826 3.95612112 10.98364258 4.49194336 C15.40970977 6.30577671 19.82151187 8.15283155 24.23046875 10.0078125 C25.4123175 10.50495758 25.4123175 10.50495758 26.61804199 11.012146 C49.30824399 20.57128059 71.8636343 30.43730481 94.36767578 40.42578125 C104.90435701 45.1024576 115.45008665 49.75177188 126.06713867 54.24414062 C126.87513916 54.59025391 127.68313965 54.93636719 128.515625 55.29296875 C129.1950415 55.58051025 129.87445801 55.86805176 130.57446289 56.16430664 C132.23046875 57.0078125 132.23046875 57.0078125 134.23046875 59.0078125 C134.48494434 61.58699131 134.48494434 61.58699131 134.49116516 64.92030334 C134.49824997 66.1805835 134.50533478 67.44086365 134.51263428 68.73933411 C134.51034016 70.14401281 134.50783042 71.54869117 134.50512695 72.95336914 C134.50947237 74.42672993 134.51465495 75.90008846 134.52061462 77.3734436 C134.53404149 81.38415746 134.53457869 85.39477727 134.53205132 89.40550923 C134.53098304 92.75499146 134.53586187 96.10445456 134.54065675 99.4539327 C134.55176694 107.36212521 134.55218236 115.27027025 134.54614258 123.1784668 C134.54011502 131.32632309 134.55237923 139.47400617 134.57371265 147.62183291 C134.59136146 154.62069327 134.59732442 161.6194987 134.5940749 168.61838049 C134.59226544 172.7965642 134.5948635 176.97462465 134.60878944 181.15278816 C134.6214148 185.08855346 134.61937947 189.02405073 134.60637856 192.95981216 C134.60402256 194.39927322 134.60671221 195.8387534 134.61500168 197.27819252 C134.65676568 205.09875317 134.34129937 211.77950382 131.23046875 219.0078125 C130.87726563 219.99007812 130.5240625 220.97234375 130.16015625 221.984375 C122.45510548 241.33261361 109.53627967 257.15649878 95.23046875 272.0078125 C94.72725098 272.53294434 94.2240332 273.05807617 93.70556641 273.59912109 C86.94210659 280.62363436 79.8937089 286.96001164 72.23046875 293.0078125 C71.0634515 293.96282777 69.89817872 294.91997751 68.734375 295.87890625 C48.09384817 312.80691244 19.10408633 334.79405629 -8.01953125 338.4453125 C-19.48884129 337.10722633 -29.71629338 331.34362192 -39.76953125 326.0078125 C-40.50010742 325.62318848 -41.23068359 325.23856445 -41.98339844 324.84228516 C-84.58248325 302.2838389 -134.05331736 263.66311722 -150.89488983 216.88187695 C-153.58434344 208.09558715 -154.34330057 200.12909614 -154.28710938 190.97192383 C-154.29254649 189.5264618 -154.29967796 188.08100533 -154.30834961 186.63555908 C-154.32637952 182.75806935 -154.31960591 178.88101148 -154.30683327 175.00351548 C-154.29662029 170.93036733 -154.30611976 166.85725318 -154.31237793 162.78410339 C-154.31962131 155.95976181 -154.31014465 149.13559437 -154.29101562 142.3112793 C-154.26915692 134.42200522 -154.27637626 126.53314323 -154.29832125 118.64387876 C-154.31645564 111.85206249 -154.31904612 105.06037034 -154.30856657 98.2685377 C-154.30233311 94.2192528 -154.30149379 90.17016207 -154.31471252 86.12088966 C-154.32624534 82.32440891 -154.31829339 78.5284632 -154.2951355 74.73204041 C-154.28983865 73.33843564 -154.29137891 71.94478596 -154.30018616 70.55119896 C-154.31108234 68.65250105 -154.29500833 66.75370489 -154.27746582 64.85505676 C-154.27595772 63.79197705 -154.27444962 62.72889734 -154.27289581 61.6336031 C-153.76953125 59.0078125 -153.76953125 59.0078125 -151.91837311 57.22887707 C-149.16355507 55.66347071 -146.36509261 54.40586551 -143.4453125 53.171875 C-142.80822357 52.90064316 -142.17113464 52.62941132 -141.51473999 52.34996033 C-139.37259461 51.43922872 -137.22730344 50.53615138 -135.08203125 49.6328125 C-133.53921409 48.97838476 -131.99665949 48.32333778 -130.4543457 47.66772461 C-127.95265101 46.6044725 -125.45074009 45.54175166 -122.94798279 44.48100281 C-116.25275708 41.64289842 -109.56786396 38.78123582 -102.88671875 35.91015625 C-83.49471926 27.57795506 -64.09441597 19.2666501 -44.64453125 11.0703125 C-43.88337006 10.74910431 -43.12220886 10.42789612 -42.33798218 10.09695435 C-38.15244719 8.3316481 -33.96180407 6.57950087 -29.76501465 4.84112549 C-27.71704272 3.98589331 -25.67743988 3.11244267 -23.63769531 2.23779297 C-22.30946882 1.68013019 -20.98102704 1.1229798 -19.65234375 0.56640625 C-18.4936377 0.07325928 -17.33493164 -0.4198877 -16.14111328 -0.92797852 C-10.23960778 -2.79073467 -5.66448852 -2.30755946 0 0 Z M-17.3984375 23.9921875 C-18.5006665 24.4262793 -19.60289551 24.86037109 -20.73852539 25.30761719 C-21.92438232 25.78618164 -23.11023926 26.26474609 -24.33203125 26.7578125 C-25.59030888 27.25970226 -26.84869305 27.76132498 -28.10717773 28.26269531 C-40.13999436 33.07867571 -52.04424337 38.19116542 -63.93359375 43.34960938 C-68.07048197 45.14118781 -72.21644335 46.91128617 -76.36328125 48.6796875 C-90.40755149 54.67110654 -104.43542937 60.69509696 -118.39453125 66.8828125 C-120.11071655 67.64174805 -120.11071655 67.64174805 -121.86157227 68.41601562 C-122.89596436 68.87685547 -123.93035645 69.33769531 -124.99609375 69.8125 C-125.89924316 70.21452637 -126.80239258 70.61655273 -127.73291016 71.03076172 C-129.71583439 71.84355413 -129.71583439 71.84355413 -130.76953125 73.0078125 C-130.87873425 74.66703672 -130.91806198 76.33089764 -130.93016052 77.9936676 C-130.94020615 79.07417389 -130.95025177 80.15468018 -130.96060181 81.26792908 C-130.9664328 82.46414383 -130.97226379 83.66035858 -130.97827148 84.89282227 C-130.98805527 86.14498535 -130.99783905 87.39714844 -131.00791931 88.68725586 C-131.03798341 92.85790063 -131.05960448 97.0285107 -131.078125 101.19921875 C-131.08142232 101.91013884 -131.08471964 102.62105894 -131.08811688 103.35352206 C-131.11894113 110.0695918 -131.14563338 116.78566607 -131.16253567 123.50178623 C-131.18434899 132.06806202 -131.22608375 140.63370337 -131.29597324 149.19972569 C-131.34350393 155.23306304 -131.36750896 161.26623127 -131.37473255 167.29974979 C-131.37965231 170.89548328 -131.39437137 174.49050333 -131.43447685 178.08603096 C-131.79726608 212.23561273 -119.27899006 233.64189501 -95.76953125 258.0078125 C-95.15126465 258.65331055 -94.53299805 259.29880859 -93.89599609 259.96386719 C-85.60346315 268.58512433 -77.15808952 276.59369015 -67.53027344 283.70458984 C-65.70399793 285.05631733 -63.89662046 286.43093839 -62.08984375 287.80859375 C-35.95971687 308.2558906 -35.95971687 308.2558906 -5.76953125 317.0078125 C-3.04616444 316.13774657 -3.04616444 316.13774657 -0.3828125 314.8046875 C0.6287793 314.32499512 1.64037109 313.84530273 2.68261719 313.35107422 C3.7502832 312.82529785 4.81794922 312.29952148 5.91796875 311.7578125 C7.0255957 311.21785645 8.13322266 310.67790039 9.27441406 310.12158203 C24.33758221 302.63773488 38.2229874 293.65789685 51.23046875 283.0078125 C51.75801758 282.57645996 52.28556641 282.14510742 52.82910156 281.70068359 C63.92494549 272.58505177 75.16198946 263.18656684 84.23046875 252.0078125 C85.15342931 250.90867232 86.07662933 249.80973318 87 248.7109375 C97.99596125 235.47018671 111.36768988 218.4622077 111.35072327 200.4776001 C111.35209793 199.35301895 111.3534726 198.22843781 111.35488892 197.06977844 C111.35129364 195.84051132 111.34769836 194.6112442 111.34399414 193.34472656 C111.34421318 191.39801308 111.34421318 191.39801308 111.34443665 189.41197205 C111.34472353 185.85652332 111.33884441 182.30110834 111.33186269 178.74566746 C111.325611 175.02874993 111.32502391 171.31183164 111.32383728 167.59490967 C111.32072932 160.55788272 111.31252314 153.5208713 111.30248779 146.48385119 C111.29131004 138.47182112 111.28581201 130.45979031 111.28079236 122.44775438 C111.27034009 105.96776466 111.252751 89.48779056 111.23046875 73.0078125 C108.73027148 71.7476927 106.2289837 70.48981984 103.72705078 69.2331543 C103.03049881 68.88180168 102.33394684 68.53044907 101.61628723 68.1684494 C95.57754431 65.13881502 89.45399188 62.32874565 83.26000977 59.63183594 C82.58318146 59.33660034 81.90635315 59.04136475 81.20901489 58.73718262 C80.51484467 58.43461548 79.82067444 58.13204834 79.10546875 57.8203125 C77.62350611 57.17115047 76.14165621 56.52173101 74.65991211 55.87207031 C70.90579822 54.22755263 67.14928891 52.58858315 63.39215088 50.95098877 C61.32093688 50.04728518 59.25080408 49.1411617 57.18115234 48.23388672 C43.69608559 42.3227919 30.17489267 36.51074727 16.54296875 30.9453125 C15.46281494 30.50413086 14.38266113 30.06294922 13.26977539 29.60839844 C10.26314331 28.39093995 7.2501583 27.19248698 4.23046875 26.0078125 C3.22935059 25.61352051 2.22823242 25.21922852 1.19677734 24.81298828 C0.2320752 24.44544434 -0.73262695 24.07790039 -1.7265625 23.69921875 C-2.57839111 23.37252197 -3.43021973 23.0458252 -4.30786133 22.70922852 C-9.2536477 21.30000068 -12.68667398 22.12206062 -17.3984375 23.9921875 Z " fill="#693DE5" transform="translate(254.76953125,79.9921875)"/>
<path d="M0 0 C0.66 0.33 1.32 0.66 2 1 C2.62255859 3.40722656 2.62255859 3.40722656 3.1484375 6.640625 C3.34695312 7.84025879 3.54546875 9.03989258 3.75 10.27587891 C3.95894249 11.60048999 4.16725741 12.9252002 4.375 14.25 C4.59608871 15.62553097 4.81744691 17.00101866 5.0390625 18.37646484 C8.76356079 41.68045783 11.65388764 65.05743899 14.25 88.51025391 C14.45039894 90.3167453 14.65091733 92.12322344 14.8515625 93.9296875 C14.94800552 94.80009171 15.04444855 95.67049591 15.14381409 96.567276 C15.73426566 101.83129926 16.40213818 107.0772841 17.12890625 112.32421875 C19.59282884 130.48021744 17.12573865 148.63783393 15.23431396 166.75042725 C14.99706264 169.02820066 14.76307804 171.30629065 14.52978516 173.58447266 C7.82484013 238.87782501 7.82484013 238.87782501 3.375 254.25 C3.11460937 255.16265625 2.85421875 256.0753125 2.5859375 257.015625 C2.29589844 257.99789062 2.29589844 257.99789062 2 259 C1.34 259 0.68 259 0 259 C-5.81593572 236.23123036 -8.73117734 213.15780491 -11.125 189.8125 C-11.37826297 187.40162505 -11.63216763 184.99081741 -11.88671875 182.58007812 C-12.60766655 175.72169552 -13.3085952 168.86141849 -14 162 C-14.10252075 160.98817657 -14.2050415 159.97635315 -14.31066895 158.93386841 C-18.08223756 121.50108885 -13.35202439 85.52989701 -7.6809082 48.48217773 C-6.89729787 43.35925125 -6.1800927 38.22772749 -5.46582031 33.09472656 C-3.92075715 22.00071959 -2.24949895 10.9748282 0 0 Z " fill="#683CE5" transform="translate(245,128)"/>
<path d="M0 0 C1.44993748 2.70038898 2.39553003 5.16542414 3.04980469 8.15649414 C3.23069138 8.97087448 3.41157806 9.78525482 3.59794617 10.62431335 C3.78734268 11.50239151 3.9767392 12.38046967 4.171875 13.28515625 C4.37500809 14.20621658 4.57814117 15.12727692 4.78742981 16.07624817 C5.44663612 19.07058907 6.09841527 22.06649226 6.75 25.0625 C7.19994704 27.1142031 7.6503878 29.16579799 8.10131836 31.21728516 C8.99339031 35.2776839 9.88299069 39.33861247 10.77099609 43.39990234 C11.81839254 48.18269936 12.88139474 52.96176386 13.95703125 57.73828125 C14.23385742 58.9698999 14.51068359 60.20151855 14.79589844 61.47045898 C15.2910673 63.6695449 15.78770782 65.86830019 16.28613281 68.06665039 C16.61049316 69.51479126 16.61049316 69.51479126 16.94140625 70.9921875 C17.12388916 71.80026855 17.30637207 72.60834961 17.49438477 73.44091797 C17.74466431 74.70766357 17.74466431 74.70766357 18 76 C18.24234375 77.11181641 18.4846875 78.22363281 18.734375 79.36914062 C19.04306586 83.58867232 18.05908115 86.37095755 16.30859375 90.1015625 C16.01229065 90.76766541 15.71598755 91.43376831 15.41070557 92.12005615 C14.43667177 94.29652005 13.43791032 96.46054877 12.4375 98.625 C11.74936149 100.14487216 11.0622816 101.66522404 10.3762207 103.18603516 C4.33388086 116.51603631 -1.97529331 129.72028604 -8.44677734 142.84667969 C-9.86649667 145.72896431 -11.2729723 148.61727238 -12.67578125 151.5078125 C-18.60399101 163.63850323 -25.17910938 175.3504416 -32 187 C-32.66 186.67 -33.32 186.34 -34 186 C-33.20914951 182.56231178 -32.41717233 179.12488385 -31.625 175.6875 C-31.36243408 174.54740479 -31.09986816 173.40730957 -30.8293457 172.23266602 C-29.13017994 164.86545564 -27.41714177 157.50165756 -25.69140625 150.140625 C-23.7594599 141.89958357 -21.8456134 133.65448998 -19.94509888 125.40614319 C-18.88691392 120.81775946 -17.82103367 116.23151795 -16.73388672 111.64990234 C-11.55226879 89.79337128 -7.6336179 68.30898117 -5.63536072 45.92941284 C-4.89981322 37.7054748 -3.99831635 29.50123469 -3.08145142 21.29580688 C-2.81800007 18.92450558 -2.56105907 16.55257463 -2.30541992 14.18041992 C-2.14782042 12.7426542 -1.99003454 11.3049089 -1.83203125 9.8671875 C-1.69514893 8.61019043 -1.5582666 7.35319336 -1.41723633 6.05810547 C-1 3 -1 3 0 0 Z " fill="#693DE5" transform="translate(312,188)"/>
<path d="M0 0 C0.66 0 1.32 0 2 0 C2.89728112 8.13711076 3.79282908 16.2744097 4.68624783 24.41194534 C5.10128138 28.19171434 5.51688117 31.97141919 5.93383789 35.75097656 C6.33722976 39.4077743 6.73905214 43.06474158 7.13984871 46.72182465 C7.29197944 48.10751062 7.44464776 49.4931377 7.59789848 50.87870026 C8.42813607 58.3884288 9.19535352 65.88862651 9.72903442 73.42582703 C10.16858457 77.60155342 11.26574607 81.54165909 12.4375 85.5625 C14.0819016 91.47815026 15.52780511 97.30423849 16.50830078 103.37207031 C16.98111572 105.89907131 17.61007826 108.3010093 18.32421875 110.76953125 C20.21344598 117.58554442 21.69278728 124.4823292 23.18972778 131.39190674 C26.37883338 146.09921475 29.8316858 160.71492083 33.64916992 175.2722168 C34.1341394 177.15227417 34.1341394 177.15227417 34.62890625 179.0703125 C35.0631189 180.72184326 35.0631189 180.72184326 35.50610352 182.40673828 C36 185 36 185 35 187 C26.76504164 174.44715417 19.78768967 161.38158733 13 148 C12.64228516 147.2997168 12.28457031 146.59943359 11.91601562 145.87792969 C9.56516063 141.2739733 7.27422391 136.64222086 5 132 C4.22221191 130.41759521 4.22221191 130.41759521 3.42871094 128.80322266 C-8.67107396 104.14087494 -8.67107396 104.14087494 -13.875 92.125 C-14.20242187 91.38983154 -14.52984375 90.65466309 -14.8671875 89.8972168 C-15.1559375 89.21183838 -15.4446875 88.52645996 -15.7421875 87.8203125 C-15.9882373 87.24555176 -16.23428711 86.67079102 -16.48779297 86.07861328 C-17.88052655 80.42669063 -16.74476679 75.05625734 -15.42578125 69.50390625 C-15.26170273 68.80180023 -15.09762421 68.09969421 -14.92857361 67.37631226 C-14.57784829 65.87834966 -14.22376556 64.38116975 -13.86657715 62.88473511 C-12.92783051 58.95028228 -12.01412924 55.01000184 -11.09765625 51.0703125 C-10.91516327 50.28867233 -10.73267029 49.50703217 -10.54464722 48.70170593 C-9.01625081 42.13317565 -7.60034786 35.54499014 -6.25 28.9375 C-4.27118728 19.26706369 -2.17600381 9.62790514 0 0 Z " fill="#693DE5" transform="translate(178,188)"/>
<path d="M0 0 C0.66 0.33 1.32 0.66 2 1 C1.58955515 7.57791873 1.13391403 13.74051886 -1 20 C-1.66 20 -2.32 20 -3 20 C-2.45136137 13.2142064 -1.45732062 6.64990964 0 0 Z " fill="#693FD5" transform="translate(245,128)"/>
<path d="M0 0 C0.66 0 1.32 0 2 0 C2.74805717 7.02639415 3.13794954 13.93391809 3 21 C2.67 21 2.34 21 2 21 C1.34 18.03 0.68 15.06 0 12 C-0.33 12 -0.66 12 -1 12 C-0.67 8.04 -0.34 4.08 0 0 Z " fill="#6C45D7" transform="translate(178,188)"/>
<path d="M0 0 C2.34087291 3.30476175 2.03308177 5.99463756 1.42578125 9.89453125 C0.798155 12.99811429 -0.0555899 15.97788767 -1 19 C-1.33 19 -1.66 19 -2 19 C-1.85913398 16.39547729 -1.71251536 13.79149803 -1.5625 11.1875 C-1.50352539 10.08051758 -1.50352539 10.08051758 -1.44335938 8.95117188 C-1.25618965 5.76928658 -1.01279207 3.03837622 0 0 Z " fill="#653DCB" transform="translate(312,188)"/>
<path d="M0 0 C1.32 0.66 2.64 1.32 4 2 C2.68 4.31 1.36 6.62 0 9 C-0.66 8.67 -1.32 8.34 -2 8 C-1.34 5.36 -0.68 2.72 0 0 Z " fill="#6034C1" transform="translate(280,366)"/>
<path d="M0 0 C0.33 0 0.66 0 1 0 C1.66 3.3 2.32 6.6 3 10 C0.20127563 7.47211993 -1.45773019 5.79588866 -2 2 C-1.34 2 -0.68 2 0 2 C0 1.34 0 0.68 0 0 Z " fill="#6743D2" transform="translate(211,365)"/>
</svg>
